<?xml version="1.0" standalone="yes"?>

<svg version="1.1" width="600" height="400" viewBox="0.0 0.0 600.0 400.0" fill="none" stroke="none" stroke-linecap="square" stroke-miterlimit="10" xmlns="http://www.w3.org/2000/svg" xmlns:xlink="http://www.w3.org/1999/xlink"><clipPath id="p.0"><path d="m0 0l600.0 0l0 400.0l-600.0 0l0 -400.0z" clip-rule="nonzero"></path></clipPath><g clip-path="url(#p.0)"><path fill="#000000" fill-opacity="0.0" d="m0 0l600.0 0l0 400.0l-600.0 0z" fill-rule="nonzero"></path><path fill="#f3f3f3" d="m240.0 24.0l120.0 0l0 63.038467l-120.0 0z" fill-rule="nonzero"></path><path stroke="#000000" stroke-width="1.0" stroke-linejoin="round" stroke-linecap="butt" d="m240.0 24.0l120.0 0l0 63.038467l-120.0 0z" fill-rule="nonzero"></path><path fill="#000000" d="m285.20764 56.12673q0 1.984375 -0.671875 3.46875q-0.65625 1.46875 -1.890625 2.25q-1.21875 0.78125 -2.84375 0.78125q-1.609375 0 -2.84375 -0.78125q-1.21875 -0.78125 -1.90625 -2.234375q-0.6875 -1.453125 -0.703125 -3.375l0 -0.96875q0 -1.953125 0.671875 -3.4375q0.6875 -1.5 1.921875 -2.28125q1.234375 -0.796875 2.828125 -0.796875q1.625 0 2.859375 0.78125q1.25 0.78125 1.90625 2.28125q0.671875 1.484375 0.671875 3.453125l0 0.859375zm-1.765625 -0.875q0 -2.40625 -0.96875 -3.6875q-0.96875 -1.28125 -2.703125 -1.28125q-1.6875 0 -2.65625 1.28125q-0.96875 1.28125 -1.0 3.5625l0 1.0q0 2.328125 0.984375 3.65625q0.984375 1.328125 2.703125 1.328125q1.71875 0 2.65625 -1.25q0.953125 -1.265625 0.984375 -3.609375l0 -1.0zm12.435547 2.28125q0 2.296875 -1.0625 3.703125q-1.046875 1.390625 -2.828125 1.390625q-1.90625 0 -2.953125 -1.34375l-0.078125 1.15625l-1.578125 0l0 -14.25l1.71875 0l0 5.3125q1.03125 -1.28125 2.859375 -1.28125q1.828125 0 2.875 1.390625q1.046875 1.375 1.046875 3.765625l0 0.15625zm-1.71875 -0.203125q0 -1.75 -0.6875 -2.703125q-0.671875 -0.953125 -1.9375 -0.953125q-1.703125 0 -2.4375 1.578125l0 4.34375q0.78125 1.578125 2.453125 1.578125q1.234375 0 1.921875 -0.953125q0.6875 -0.96875 0.6875 -2.890625zm5.466797 -4.921875l0 11.1875q0 2.890625 -2.625 2.890625q-0.578125 0 -1.0625 -0.15625l0 -1.375q0.296875 0.078125 0.78125 0.078125q0.578125 0 0.875 -0.3125q0.3125 -0.3125 0.3125 -1.078125l0 -11.234375l1.71875 0zm-1.90625 -2.671875q0 -0.40625 0.25 -0.6875q0.265625 -0.296875 0.765625 -0.296875q0.5 0 0.75 0.28125q0.265625 0.28125 0.265625 0.703125q0 0.421875 -0.265625 0.703125q-0.25 0.265625 -0.765625 0.265625q-0.5 0 -0.75 -0.265625q-0.25 -0.28125 -0.25 -0.703125zm8.751434 12.890625q-2.046875 0 -3.328125 -1.34375q-1.28125 -1.34375 -1.28125 -3.578125l0 -0.328125q0 -1.484375 0.5625 -2.65625q0.578125 -1.171875 1.59375 -1.828125q1.03125 -0.671875 2.234375 -0.671875q1.953125 0 3.03125 1.296875q1.09375 1.28125 1.09375 3.6875l0 0.703125l-6.796875 0q0.03125 1.484375 0.859375 2.40625q0.84375 0.90625 2.125 0.90625q0.90625 0 1.53125 -0.359375q0.640625 -0.375 1.109375 -0.984375l1.046875 0.8125q-1.265625 1.9375 -3.78125 1.9375zm-0.21875 -9.0q-1.03125 0 -1.75 0.765625q-0.703125 0.75 -0.859375 2.109375l5.015625 0l0 -0.125q-0.0625 -1.3125 -0.703125 -2.03125q-0.625 -0.71875 -1.703125 -0.71875zm9.961945 7.59375q0.921875 0 1.59375 -0.546875q0.6875 -0.5625 0.765625 -1.390625l1.625 0q-0.046875 0.859375 -0.59375 1.640625q-0.546875 0.765625 -1.46875 1.234375q-0.90625 0.46875 -1.921875 0.46875q-2.046875 0 -3.265625 -1.359375q-1.203125 -1.375 -1.203125 -3.75l0 -0.296875q0 -1.46875 0.53125 -2.609375q0.546875 -1.140625 1.546875 -1.765625q1.0 -0.625 2.375 -0.625q1.6875 0 2.796875 1.015625q1.125 1.0 1.203125 2.609375l-1.625 0q-0.078125 -0.96875 -0.734375 -1.59375q-0.65625 -0.625 -1.640625 -0.625q-1.296875 0 -2.03125 0.9375q-0.71875 0.9375 -0.71875 2.71875l0 0.328125q0 1.734375 0.71875 2.671875q0.71875 0.9375 2.046875 0.9375zm8.062256 -11.25l0 2.4375l1.875 0l0 1.3125l-1.875 0l0 6.234375q0 0.59375 0.25 0.90625q0.25 0.296875 0.859375 0.296875q0.296875 0 0.8125 -0.109375l0 1.390625q-0.671875 0.1875 -1.3125 0.1875q-1.15625 0 -1.75 -0.6875q-0.578125 -0.703125 -0.578125 -1.984375l0 -6.234375l-1.828125 0l0 -1.3125l1.828125 0l0 -2.4375l1.71875 0z" fill-rule="nonzero"></path><path fill="#f3f3f3" d="m240.0 120.96153l120.0 0l0 63.038467l-120.0 0z" fill-rule="nonzero"></path><path stroke="#000000" stroke-width="1.0" stroke-linejoin="round" stroke-linecap="butt" d="m240.0 120.96153l120.0 0l0 63.038467l-120.0 0z" fill-rule="nonzero"></path><path fill="#000000" d="m302.9461 155.8695l-5.65625 0l-1.28125 3.53125l-1.828125 0l5.15625 -13.515625l1.5625 0l5.15625 13.515625l-1.828125 0l-1.28125 -3.53125zm-5.125 -1.453125l4.59375 0l-2.296875 -6.328125l-2.296875 6.328125z" fill-rule="nonzero"></path><path fill="#fce5cd" d="m240.0 216.96153l120.0 0l0 63.038467l-120.0 0z" fill-rule="nonzero"></path><path stroke="#000000" stroke-width="1.0" stroke-linejoin="round" stroke-linecap="butt" d="m240.0 216.96153l120.0 0l0 63.038467l-120.0 0z" fill-rule="nonzero"></path><path fill="#000000" d="m272.72534 251.8695l-5.65625 0l-1.28125 3.53125l-1.828125 0l5.15625 -13.515625l1.5625 0l5.15625 13.515625l-1.828125 0l-1.28125 -3.53125zm-5.125 -1.453125l4.59375 0l-2.296875 -6.328125l-2.296875 6.328125zm23.070068 2.625l1.921875 -7.671875l1.71875 0l-2.921875 10.03125l-1.390625 0l-2.4375 -7.609375l-2.375 7.609375l-1.390625 0l-2.90625 -10.03125l1.703125 0l1.96875 7.5l2.34375 -7.5l1.375 0l2.390625 7.671875zm6.9882507 2.359375l-1.703125 0l0 -10.03125l1.703125 0l0 10.03125zm-1.84375 -12.703125q0 -0.421875 0.25 -0.703125q0.25 -0.28125 0.75 -0.28125q0.515625 0 0.765625 0.28125q0.265625 0.28125 0.265625 0.703125q0 0.421875 -0.265625 0.703125q-0.25 0.265625 -0.765625 0.265625q-0.5 0 -0.75 -0.265625q-0.25 -0.28125 -0.25 -0.703125zm6.8399353 0.234375l0 2.4375l1.875 0l0 1.3125l-1.875 0l0 6.234375q0 0.59375 0.25 0.90625q0.25 0.296875 0.859375 0.296875q0.296875 0 0.8125 -0.109375l0 1.390625q-0.671875 0.1875 -1.3125 0.1875q-1.15625 0 -1.75 -0.6875q-0.578125 -0.703125 -0.578125 -1.984375l0 -6.234375l-1.828125 0l0 -1.3125l1.828125 0l0 -2.4375l1.71875 0zm5.4848633 3.640625q1.140625 -1.390625 2.96875 -1.390625q3.1875 0 3.203125 3.578125l0 6.640625l-1.703125 0l0 -6.640625q-0.015625 -1.09375 -0.5 -1.609375q-0.484375 -0.515625 -1.515625 -0.515625q-0.84375 0 -1.46875 0.453125q-0.625 0.4375 -0.984375 1.15625l0 7.15625l-1.71875 0l0 -14.25l1.71875 0l0 5.421875zm15.753418 -4.6875l4.40625 11.03125l4.421875 -11.03125l2.3125 0l0 13.515625l-1.78125 0l0 -5.265625l0.15625 -5.671875l-4.421875 10.9375l-1.375 0l-4.421875 -10.90625l0.171875 5.640625l0 5.265625l-1.78125 0l0 -13.515625l2.3125 0z" fill-rule="nonzero"></path><path fill="#000000" fill-opacity="0.0" d="m300.0 120.96153l0 -33.921265" fill-rule="nonzero"></path><path stroke="#000000" stroke-width="1.0" stroke-linejoin="round" stroke-linecap="butt" d="m300.0 120.96153l0 -27.921257" fill-rule="evenodd"></path><path fill="#000000" stroke="#000000" stroke-width="1.0" stroke-linecap="butt" d="m301.65173 93.040276l-1.6517334 -4.538101l-1.6517334 4.538101z" fill-rule="evenodd"></path><path fill="#000000" fill-opacity="0.0" d="m300.0 216.96153l0 -32.97638" fill-rule="nonzero"></path><path stroke="#000000" stroke-width="1.0" stroke-linejoin="round" stroke-linecap="butt" d="m300.0 216.96153l0 -26.97638" fill-rule="evenodd"></path><path fill="#000000" stroke="#000000" stroke-width="1.0" stroke-linecap="butt" d="m301.65173 189.98515l-1.6517334 -4.538101l-1.6517334 4.538101z" fill-rule="evenodd"></path><path fill="#f3f3f3" d="m240.0 312.96152l120.0 0l0 63.038483l-120.0 0z" fill-rule="nonzero"></path><path stroke="#000000" stroke-width="1.0" stroke-linejoin="round" stroke-linecap="butt" d="m240.0 312.96152l120.0 0l0 63.038483l-120.0 0z" fill-rule="nonzero"></path><path fill="#000000" d="m295.7552 351.40076l0 -13.515625l4.421875 0q2.203125 0 3.3125 0.921875q1.109375 0.90625 1.109375 2.6875q0 0.9375 -0.546875 1.671875q-0.53125 0.734375 -1.46875 1.125q1.09375 0.3125 1.734375 1.171875q0.640625 0.859375 0.640625 2.046875q0 1.8125 -1.1875 2.859375q-1.171875 1.03125 -3.328125 1.03125l-4.6875 0zm1.78125 -6.3125l0 4.859375l2.953125 0q1.234375 0 1.953125 -0.640625q0.71875 -0.65625 0.71875 -1.78125q0 -2.4375 -2.65625 -2.4375l-2.96875 0zm0 -1.4375l2.703125 0q1.15625 0 1.859375 -0.578125q0.703125 -0.59375 0.703125 -1.59375q0 -1.109375 -0.65625 -1.609375q-0.640625 -0.515625 -1.96875 -0.515625l-2.640625 0l0 4.296875z" fill-rule="nonzero"></path><path fill="#000000" fill-opacity="0.0" d="m300.0 312.96152l0 -32.97635" fill-rule="nonzero"></path><path stroke="#000000" stroke-width="1.0" stroke-linejoin="round" stroke-linecap="butt" d="m300.0 312.96152l0 -26.976349" fill-rule="evenodd"></path><path fill="#000000" stroke="#000000" stroke-width="1.0" stroke-linecap="butt" d="m301.65173 285.98517l-1.6517334 -4.5381165l-1.6517334 4.5381165z" fill-rule="evenodd"></path><path fill="#ead1dc" d="m408.0 216.96153l120.0 0l0 63.038467l-120.0 0z" fill-rule="nonzero"></path><path stroke="#000000" stroke-width="1.0" stroke-linejoin="round" stroke-linecap="butt" d="m408.0 216.96153l120.0 0l0 63.038467l-120.0 0z" fill-rule="nonzero"></path><path fill="#000000" d="m463.7311 241.88513l4.40625 11.03125l4.421875 -11.03125l2.3125 0l0 13.515625l-1.78125 0l0 -5.265625l0.15625 -5.671875l-4.421875 10.9375l-1.375 0l-4.421875 -10.90625l0.171875 5.640625l0 5.265625l-1.78125 0l0 -13.515625l2.3125 0z" fill-rule="nonzero"></path><path fill="#000000" fill-opacity="0.0" d="m360.0 344.48077l48.0 -96.000015" fill-rule="nonzero"></path><path stroke="#000000" stroke-width="1.0" stroke-linejoin="round" stroke-linecap="butt" stroke-dasharray="4.0,3.0" d="m360.0 344.48077l45.31671 -90.63344" fill-rule="evenodd"></path><path fill="#000000" stroke="#000000" stroke-width="1.0" stroke-linecap="butt" d="m406.79407 254.58601l0.55215454 -4.7976837l-3.5068665 3.3203278z" fill-rule="evenodd"></path><path fill="#000000" fill-opacity="0.0" d="m360.0 248.48076l48.0 0" fill-rule="nonzero"></path><path stroke="#000000" stroke-width="1.0" stroke-linejoin="round" stroke-linecap="butt" stroke-dasharray="1.0,3.0" d="m360.0 248.48076l42.0 0" fill-rule="evenodd"></path><path fill="#000000" stroke="#000000" stroke-width="1.0" stroke-linecap="butt" d="m402.0 250.13249l4.538086 -1.6517334l-4.538086 -1.6517181z" fill-rule="evenodd"></path></g></svg>
